<?xml version="1.0" encoding="UTF-8"?>
<svg version="1.1" xmlns="http://www.w3.org/2000/svg" width="500" height="500">
<path d="M0 0 C165 0 330 0 500 0 C500 165 500 330 500 500 C335 500 170 500 0 500 C0 335 0 170 0 0 Z " fill="#CA6CE5" transform="translate(0,0)"/>
<path d="M0 0 C17.82 0 35.64 0 54 0 C52.87488155 9.00094758 52.87488155 9.00094758 52.24731445 11.96801758 C52.10634842 12.64214188 51.96538239 13.31626617 51.82014465 14.01081848 C51.66937973 14.7149437 51.51861481 15.41906891 51.36328125 16.14453125 C51.20353317 16.90283737 51.0437851 17.66114349 50.87919617 18.44242859 C50.36037695 20.89985584 49.83660391 23.35619489 49.3125 25.8125 C48.94713032 27.53642966 48.58189736 29.26038831 48.21679688 30.984375 C45.97692954 41.53631681 43.67100966 52.07211899 41.3034668 62.59619141 C37.69912843 78.69368898 34.37297279 94.85276243 31 111 C38.77616475 109.93828509 43.01274052 104.64332179 48.28125 99.2421875 C49.262358 98.25427687 50.24451432 97.26740633 51.22766113 96.28152466 C53.80748069 93.68833346 56.3715392 91.08007375 58.93292236 88.46868896 C61.00969339 86.35665125 63.097464 84.25568445 65.18595123 82.15524101 C77.13309691 70.21824017 77.13309691 70.21824017 88.4901123 57.72732544 C90.56977574 55.3481713 92.78109057 53.12371946 95.03125 50.90625 C95.92457031 50.02066406 96.81789062 49.13507813 97.73828125 48.22265625 C99.57942708 46.40755208 101.42057292 44.59244792 103.26171875 42.77734375 C107.80172882 38.27664113 112.18377318 33.73597795 116.34179688 28.88085938 C119.23657961 25.5973779 122.37591459 22.56324479 125.5 19.5 C130.04098461 15.00795681 134.50901563 10.522254 138.60546875 5.61328125 C139.06566406 5.08089844 139.52585938 4.54851562 140 4 C140.5601178 3.31609192 141.1202356 2.63218384 141.69732666 1.92755127 C144.70338535 -0.58879881 146.35133362 -0.48518933 150.23730469 -0.45410156 C151.49830994 -0.45379944 152.75931519 -0.45349731 154.05853271 -0.45318604 C155.42965326 -0.43276105 156.80076733 -0.41189709 158.171875 -0.390625 C159.57862544 -0.38316117 160.98538631 -0.3774689 162.39215088 -0.37347412 C166.08808282 -0.3582286 169.78338227 -0.31895731 173.47906494 -0.2746582 C177.25288335 -0.23368143 181.02680432 -0.21545804 184.80078125 -0.1953125 C192.20080864 -0.15246099 199.60031557 -0.08422405 207 0 C207.13528442 4.79574585 207.13528442 4.79574585 205.91772461 6.6340332 C205.16761108 7.33532349 205.16761108 7.33532349 204.40234375 8.05078125 C203.84740234 8.58509766 203.29246094 9.11941406 202.72070312 9.66992188 C202.13224609 10.21197266 201.54378906 10.75402344 200.9375 11.3125 C197.39005563 14.66444801 193.94046088 18.00178205 190.77172852 21.71948242 C187.06759807 25.98226801 183.1410079 29.97009948 179.125 33.9375 C178.39684082 34.66187256 177.66868164 35.38624512 176.91845703 36.13256836 C173.83943049 39.19542424 170.75441677 42.25222311 167.66992188 45.30957031 C165.40284542 47.55844117 163.13887034 49.81040238 160.875 52.0625 C160.18937988 52.73982178 159.50375977 53.41714355 158.79736328 54.11499023 C155.66840446 57.22823142 152.64025623 60.36915634 149.77124023 63.72436523 C144.74241497 69.55011445 139.22923108 74.91461359 133.78515625 80.34765625 C132.603487 81.53000077 131.42196609 82.71249357 130.24058533 83.89512634 C127.77537277 86.36180534 125.30838114 88.82668703 122.84008789 91.2902832 C119.69545516 94.42921932 116.55533444 97.57262471 113.41654301 100.71740055 C110.98095768 103.15662006 108.54297011 105.59342741 106.10427666 108.02953911 C104.94626161 109.18689277 103.78897307 110.34497387 102.63246346 111.50383186 C97.07985067 117.06524661 91.53379606 122.58707556 85.54173279 127.68188477 C83.598772 129.34303269 81.78829015 131.1119538 80 132.9375 C79.4225 133.52402344 78.845 134.11054688 78.25 134.71484375 C77.8375 135.13894531 77.425 135.56304687 77 136 C78.66977953 140.87498851 81.3564521 144.94557902 84.125 149.25 C84.64634521 150.06774902 85.16769043 150.88549805 85.70483398 151.72802734 C86.84961403 153.52207814 87.99643921 155.31482514 89.14501953 157.10644531 C91.08894583 160.1387452 93.02727016 163.17457492 94.96484375 166.2109375 C100.82465125 175.38723327 106.69920736 184.55365938 112.625 193.6875 C117.27604897 200.85648863 121.86751957 208.06252283 126.45092773 215.27490234 C131.01852768 222.4613257 135.59929561 229.63921554 140.1875 236.8125 C140.8568457 237.86155518 141.52619141 238.91061035 142.21582031 239.99145508 C145.24750954 244.73601147 148.29522171 249.46580575 151.421875 254.1484375 C152.19301636 255.31088989 152.19301636 255.31088989 152.97973633 256.49682617 C153.9160806 257.90393003 154.86057847 259.3056609 155.81518555 260.70043945 C158.29779076 264.4416519 159.73601431 267.48516776 160 272 C158.314424 273.685576 156.18718251 273.21410665 153.87280273 273.28808594 C152.77753769 273.32351501 151.68227264 273.35894409 150.55381775 273.39544678 C145.51559493 273.51920713 140.47748759 273.61006478 135.43823242 273.6796875 C132.78093755 273.71974681 130.1311879 273.79442089 127.47436523 273.88476562 C123.64730568 274.0127242 119.82495475 274.06828354 115.99609375 274.109375 C114.81558945 274.16301208 113.63508514 274.21664917 112.41880798 274.27191162 C107.36650292 274.26107362 104.26943887 274.21068924 100.51203918 270.62718201 C98.45522403 267.83155662 96.69341613 265.0269275 95 262 C94.09477526 260.5606887 93.1857464 259.12374652 92.26953125 257.69140625 C91.44657686 256.31745882 90.62763906 254.94109849 89.8125 253.5625 C85.8912474 247.04251066 81.85354708 240.61634877 77.6875 234.25 C73.03278091 227.13551521 68.43000632 219.99127466 63.875 212.8125 C58.40818 204.20086964 52.89481032 195.62138444 47.33984375 187.06640625 C45.46416575 184.17359674 43.59601675 181.27595227 41.72802734 178.37817383 C40.34767755 176.24194087 38.95932628 174.11107463 37.5703125 171.98046875 C35.9199047 169.44359469 34.31230021 166.88804177 32.7421875 164.30078125 C32.06414062 163.21152344 31.38609375 162.12226563 30.6875 161 C30.11386719 160.05125 29.54023437 159.1025 28.94921875 158.125 C26.44312074 155.39290117 24.62452047 155.24538361 21 155 C20.89816406 156.18207031 20.79632813 157.36414063 20.69140625 158.58203125 C19.93130342 165.37801153 18.39206432 172.01347259 16.9375 178.6875 C16.62586669 180.13359641 16.3147628 181.57980701 16.00415039 183.02612305 C15.51365555 185.30989499 15.02285999 187.59359723 14.53050232 189.87696838 C12.8061046 197.87729997 11.12463018 205.88650566 9.44470215 213.89627075 C8.44257474 218.67024411 7.43548454 223.44317262 6.42901611 228.2162323 C5.65435597 231.89095151 4.88093444 235.56591795 4.11132812 239.24169922 C3.30794391 243.07876545 2.49802 246.91443439 1.6875 250.75 C1.45732178 251.85512939 1.22714355 252.96025879 0.98999023 254.09887695 C0.66043335 255.65094849 0.66043335 255.65094849 0.32421875 257.234375 C0.13947998 258.11319336 -0.04525879 258.99201172 -0.2355957 259.89746094 C-1.32268634 264.30970873 -2.69423554 268.6474518 -4 273 C-21.49 273 -38.98 273 -57 273 C-55.87395362 261.73953623 -55.87395362 261.73953623 -55.01953125 257.50390625 C-54.82818604 256.54782471 -54.63684082 255.59174316 -54.43969727 254.60668945 C-54.23272217 253.60210693 -54.02574707 252.59752441 -53.8125 251.5625 C-53.59327881 250.48121826 -53.37405762 249.39993652 -53.14819336 248.28588867 C-51.31192538 239.31610333 -49.31984279 230.3835082 -47.30419922 221.45263672 C-45.38463015 212.88868817 -43.63360893 204.29826311 -41.9375 195.6875 C-40.28108699 187.28283597 -38.57480764 178.90415825 -36.625 170.5625 C-34.24002946 160.35215207 -32.15004778 150.08676504 -30.0625 139.8125 C-27.58887893 127.64083009 -25.03831071 115.49660885 -22.29370117 103.38256836 C-19.65006333 91.62047666 -17.26927654 79.80435739 -14.890625 67.98632812 C-13.18397358 59.54293456 -11.3878423 51.13563735 -9.35140991 42.76486206 C-8.26723454 38.28166553 -7.37772993 33.78927746 -6.5625 29.25 C-4.70305912 19.43215218 -2.3144403 9.72064928 0 0 Z " fill="#D8D8D8" transform="translate(87,124)"/>
<path d="M0 0 C0.72826492 -0.00988449 1.45652985 -0.01976898 2.2068634 -0.029953 C30.19847458 -0.33139798 58.86825528 1.69340178 82.1171875 19.23828125 C83.43009766 20.03878906 83.43009766 20.03878906 84.76953125 20.85546875 C88.89586669 23.7165642 90.8270302 25.9278738 91.93115234 30.91430664 C92.51104503 38.27489395 92.1241206 44.01608858 87.29664612 49.8503418 C85.08635285 52.21708783 82.79141583 54.45322865 80.39331055 56.62915039 C78.5376514 58.31627005 76.75614791 60.0612581 74.97460938 61.82617188 C73.81619847 62.93746193 72.65420516 64.04503239 71.48828125 65.1484375 C70.95569199 65.66382584 70.42310272 66.17921417 69.87437439 66.71022034 C66.95414955 69.32527658 65.27460261 70.22112717 61.33544922 70.65039062 C58.1171875 70.23828125 58.1171875 70.23828125 56.25390625 68.734375 C55.77566406 68.05503906 55.29742187 67.37570313 54.8046875 66.67578125 C45.92148786 55.58156496 32.00235299 49.89208162 18.1171875 48.23828125 C13.62275874 48.01265732 9.130562 47.96838013 4.63134766 47.94311523 C3.21588098 47.93164546 1.80045583 47.91127332 0.38525391 47.8815918 C-12.95676279 47.60291957 -27.69187215 49.35999048 -37.7578125 58.98828125 C-38.8096875 60.10203125 -38.8096875 60.10203125 -39.8828125 61.23828125 C-40.5428125 61.23828125 -41.2028125 61.23828125 -41.8828125 61.23828125 C-42.1509375 61.91890625 -42.4190625 62.59953125 -42.6953125 63.30078125 C-43.8828125 66.23828125 -43.8828125 66.23828125 -45.5078125 69.23828125 C-48.01715064 75.07633325 -47.82588533 82.35664816 -46.34375 88.45703125 C-43.12390909 96.52432495 -37.3836525 100.4774144 -29.8828125 104.23828125 C-23.90823453 106.7351198 -17.71428736 108.29771519 -11.42993164 109.78613281 C17.42162422 116.66095169 51.12110713 125.36897428 67.90625 152.0859375 C77.60573217 170.21871329 77.26572138 191.38984943 71.85791016 210.84423828 C66.83053425 227.09290279 59.07095026 241.07553662 47.1171875 253.23828125 C46.50359375 253.86476563 45.89 254.49125 45.2578125 255.13671875 C36.26267316 263.63212813 24.52727033 268.84590423 13.1171875 273.23828125 C12.47007812 273.52316406 11.82296875 273.80804688 11.15625 274.1015625 C4.18134819 277.07122593 -3.44521873 278.03961109 -10.8828125 279.23828125 C-12.12417969 279.44710938 -13.36554688 279.6559375 -14.64453125 279.87109375 C-34.29841294 282.69298576 -55.56206859 283.16785377 -74.8828125 278.23828125 C-75.57052734 278.07199219 -76.25824219 277.90570313 -76.96679688 277.734375 C-92.5008148 273.92494281 -106.44465826 267.38519655 -118.8828125 257.23828125 C-120.19378906 256.17287109 -120.19378906 256.17287109 -121.53125 255.0859375 C-129.604141 248.18882792 -135.8107309 240.07914512 -139.8828125 230.23828125 C-139.6258967 226.15249134 -137.15354294 224.17250084 -134.3203125 221.42578125 C-133.40507812 220.53761719 -132.48984375 219.64945313 -131.546875 218.734375 C-128.84806474 216.20572433 -126.10861898 213.75806814 -123.28125 211.375 C-121.21574671 209.53488551 -119.25727038 207.64508106 -117.296875 205.6953125 C-116.64420654 205.0569043 -115.99153809 204.41849609 -115.3190918 203.76074219 C-114.0073438 202.47446969 -112.70873571 201.17462997 -111.42504883 199.86035156 C-108.08910523 196.61949529 -106.69602142 195.32240631 -101.91796875 194.828125 C-100.41556641 195.03115234 -100.41556641 195.03115234 -98.8828125 195.23828125 C-98.6146875 195.77195312 -98.3465625 196.305625 -98.0703125 196.85546875 C-89.22416199 213.67479438 -75.55044573 225.48103383 -57.3828125 231.17578125 C-38.00137648 236.47758712 -16.02169204 234.93253442 1.6796875 225.48828125 C10.50524862 219.67379392 14.6866427 211.18241091 17.69921875 201.3359375 C19.1025711 194.29294485 19.31147905 186.27043856 15.48046875 180.00390625 C4.58229796 165.88936986 -16.19618005 162.96823114 -32.51660156 158.52050781 C-44.38870666 155.26070946 -55.1450452 151.28992194 -65.8828125 145.23828125 C-67.37361328 144.42423828 -67.37361328 144.42423828 -68.89453125 143.59375 C-84.1690559 134.63821558 -94.59187956 121.0385743 -99.8828125 104.23828125 C-104.86954799 82.83950492 -100.04303321 60.71706775 -88.8828125 42.23828125 C-76.2789552 22.79605013 -57.23633124 9.80409824 -34.65234375 4.79296875 C-23.16516542 2.39547698 -11.76666909 0.13201881 0 0 Z " fill="#D8D8D8" transform="translate(408.8828125,119.76171875)"/>
<path d="M0 0 C11.88 0 23.76 0 36 0 C34.87716406 8.98268755 34.87716406 8.98268755 33.94921875 12.85546875 C33.74756104 13.71350098 33.54590332 14.5715332 33.33813477 15.45556641 C33.01607056 16.80787354 33.01607056 16.80787354 32.6875 18.1875 C30.99003201 25.47594605 29.42000918 32.76568296 28.0625 40.125 C26.3664595 49.2727654 24.45631207 58.36473249 22.48803711 67.45751953 C21.00928941 74.29154726 19.54762813 81.12837108 18.1171875 87.97265625 C17.95543533 88.74627502 17.79368317 89.5198938 17.62702942 90.31695557 C17.3815461 91.49110016 17.3815461 91.49110016 17.13110352 92.68896484 C13.96144379 107.849214 10.69204173 122.98206516 7.30041504 138.09420776 C4.992083 148.39032004 2.81307662 158.70046002 0.79003906 169.05712891 C-0.66546388 176.46264011 -2.27512766 183.82586972 -3.9375 191.1875 C-6.40197135 202.11018268 -8.64336343 213.06665915 -10.81347656 224.05126953 C-13.06178492 235.40093153 -15.47811149 246.70823841 -18 258 C-18.16129395 258.72638672 -18.32258789 259.45277344 -18.48876953 260.20117188 C-20.80681818 270.61363636 -20.80681818 270.61363636 -22 273 C-31.57 273 -41.14 273 -51 273 C-51.54862221 252.97528933 -50.57639763 236.20041609 -45.88964844 216.76464844 C-44.48236218 210.80955674 -43.24706475 204.81986992 -41.99783325 198.83001709 C-41.26914094 195.34833391 -40.52669751 191.86958998 -39.78515625 188.390625 C-39.48708084 186.99024738 -39.18906652 185.58985675 -38.89111328 184.18945312 C-38.74377747 183.49698486 -38.59644165 182.8045166 -38.44464111 182.09106445 C-37.27292383 176.58069599 -36.10501966 171.06951742 -34.93649292 165.55847168 C-34.20785702 162.12227307 -33.47891281 158.68613987 -32.75 155.25 C-32.45833186 153.87500031 -32.16666519 152.50000031 -31.875 151.125 C-30.12500001 142.87500003 -30.12500001 142.87500003 -29.68745422 140.81228638 C-29.39593896 139.4379987 -29.10442489 138.06371078 -28.81291199 136.68942261 C-28.08143847 133.24102194 -27.34994414 129.7926257 -26.6184082 126.34423828 C-25.19697732 119.64365023 -23.77585063 112.94299803 -22.35546875 106.2421875 C-21.93995008 104.28231628 -21.52443123 102.32244509 -21.10888672 100.36257935 C-20.82742939 99.03501311 -20.54601679 97.70743739 -20.26464844 96.37985229 C-18.37712808 87.47445922 -16.48242369 78.5706241 -14.58203125 69.66796875 C-9.6305162 46.46304842 -4.75263736 23.24659577 0 0 Z " fill="#010101" transform="translate(51,124)"/>
<path d="M0 0 C0 0.33 0 0.66 0 1 C-0.76441406 1.12004395 -1.52882813 1.24008789 -2.31640625 1.36376953 C-31.39598007 6.0135269 -57.45380559 13.37146751 -75.83447266 38.31396484 C-85.65433905 52.51924288 -90.16922204 67.8870858 -90.25 85.0625 C-90.270625 86.13177734 -90.29125 87.20105469 -90.3125 88.30273438 C-90.3944916 105.26474751 -84.69498239 119.24001031 -72.84375 131.25 C-56.81592758 146.74943267 -37.30932008 153.9053035 -15.9375 159 C17.8297663 167.07928457 17.8297663 167.07928457 27 181 C30.69637416 188.59598539 29.79822434 197.36442413 27.375 205.25 C23.35221162 215.88866333 17.31618237 223.36600691 7.03515625 228.47265625 C-3.3310313 232.95639185 -11.95883507 234.3070208 -23.1875 234.1875 C-24.34958984 234.18685547 -25.51167969 234.18621094 -26.70898438 234.18554688 C-31.6216162 234.1601221 -36.19485904 234.10345981 -41 233 C-38.16757578 231.11171718 -36.01514041 230.27990411 -32.8125 229.25 C-22.3851902 225.5220304 -15.00031697 218.58835378 -10.125 208.6875 C-6.82670492 200.15705605 -6.01706774 189.80991438 -9.00390625 181.05859375 C-14.53778672 171.74086339 -25.22797615 168.21197441 -35 165 C-35.84304688 164.69578125 -36.68609375 164.3915625 -37.5546875 164.078125 C-43.37710827 162.019182 -49.24678079 160.41839442 -55.23632812 158.93701172 C-66.07999685 156.24014984 -75.99262425 152.96384053 -86 148 C-86.97839844 147.54109375 -87.95679688 147.0821875 -88.96484375 146.609375 C-106.58005941 137.81440362 -119.21475122 122.88606466 -125.421875 104.30078125 C-131.16872406 81.42987521 -125.00820302 59.81934118 -113.3125 40.1640625 C-100.27137197 20.2888818 -79.80795899 8.54249151 -57.0625 3.1875 C-54.71473799 2.75529836 -52.35974672 2.36108193 -50 2 C-49.35675781 1.89848633 -48.71351563 1.79697266 -48.05078125 1.69238281 C-32.14629895 -0.70843666 -16.03606924 -0.20004692 0 0 Z " fill="#020203" transform="translate(399,120)"/>
<path d="M0 0 C2.87597656 -0.11523438 2.87597656 -0.11523438 6 0 C7.984375 1.84375 7.984375 1.84375 9.75 4.5 C10.76900391 6.01207031 10.76900391 6.01207031 11.80859375 7.5546875 C12.542648 8.70083655 13.27297391 9.84938001 14 11 C14.38172363 11.59973633 14.76344727 12.19947266 15.15673828 12.81738281 C17.25651629 16.12847188 19.32810671 19.45615636 21.38671875 22.79296875 C23.91204722 26.87697928 26.50714699 30.91234504 29.125 34.9375 C35.77190241 45.16957092 42.33858357 55.45266838 48.91064453 65.73291016 C51.64384924 70.00677618 54.38008924 74.27869457 57.11645508 78.55053711 C59.10259748 81.65251156 61.08660431 84.75584346 63.0703125 87.859375 C65.74420066 92.04191871 68.42785024 96.21800006 71.1171875 100.390625 C72.41153528 102.40620059 73.70580922 104.4218236 75 106.4375 C75.60602051 107.37360107 76.21204102 108.30970215 76.83642578 109.27416992 C77.38540527 110.13115479 77.93438477 110.98813965 78.5 111.87109375 C78.9846875 112.62318115 79.469375 113.37526855 79.96875 114.15014648 C81 116 81 116 81 118 C51.07852543 120.65674804 51.07852543 120.65674804 43.48828125 116.68603516 C39.70911077 113.06015884 37.95691905 108.41855825 36.10839844 103.60058594 C34.09849439 98.8848375 31.13928686 94.75766754 28.3125 90.5 C27.11963087 88.63280036 25.93090899 86.76294551 24.74609375 84.890625 C19.83832432 77.17207438 19.83832432 77.17207438 14.92236328 69.45874023 C13.56548606 67.3321677 12.21096374 65.20409062 10.85888672 63.07446289 C7.75888422 58.21276652 4.61860315 53.4045793 1.28515625 48.69921875 C0.71748535 47.8887207 0.14981445 47.07822266 -0.43505859 46.24316406 C-1.48275898 44.75884326 -2.54828792 43.28686694 -3.63525391 41.83105469 C-6.03215619 38.42171827 -7 36.66990376 -7 32.41015625 C-6.69564248 30.93383286 -6.35704074 29.4644747 -6 28 C-5.78077881 26.92613037 -5.56155762 25.85226074 -5.33569336 24.74584961 C-4.56857978 20.98962965 -3.75766419 17.24497245 -2.9375 13.5 C-2.6526753 12.1875693 -2.3681675 10.87506978 -2.08398438 9.5625 C-1.39242867 6.37431099 -0.69768137 3.18685309 0 0 Z " fill="#010101" transform="translate(108,279)"/>
<path d="M0 0 C-3.77631343 4.44903375 -7.60439219 8.83676801 -11.5625 13.125 C-12.07063232 13.67631592 -12.57876465 14.22763184 -13.10229492 14.7956543 C-17.4059296 19.43008536 -21.8462637 23.91641275 -26.37133789 28.33447266 C-29.12070808 31.03757199 -31.72166158 33.80167854 -34.23046875 36.73046875 C-39.56047233 42.89459329 -45.46258101 48.50554309 -51.26171875 54.22265625 C-52.15503906 55.10824219 -53.04835937 55.99382812 -53.96875 56.90625 C-54.76732422 57.69322266 -55.56589844 58.48019531 -56.38867188 59.29101562 C-58.41074495 61.38870849 -60.32357559 63.50539382 -62.22436523 65.70898438 C-69.01117192 73.52645946 -76.42963618 80.77271876 -83.71557617 88.12060547 C-85.62360035 90.04657267 -87.52270086 91.98074602 -89.41479492 93.92236328 C-92.15676418 96.73594649 -94.92297936 99.5249338 -97.69140625 102.3125 C-98.53530411 103.18422852 -99.37920197 104.05595703 -100.24867249 104.95410156 C-101.04647629 105.74913086 -101.84428009 106.54416016 -102.66625977 107.36328125 C-103.36018326 108.06751221 -104.05410675 108.77174316 -104.76905823 109.49731445 C-107.64549213 111.43478127 -109.60383056 111.28284797 -113 111 C-112.77390793 108.94761084 -112.54553065 106.8954601 -112.30908203 104.84423828 C-112.09495682 102.87381277 -111.9076213 100.90036162 -111.74169922 98.92529297 C-109.63102431 76.28989348 -101.47107957 65.839488 -84.69580078 51.40771484 C-81.74995333 48.7766745 -79.22596716 45.9911823 -76.69702148 42.96801758 C-72.65319102 38.27843085 -68.0845326 34.04955722 -63.671875 29.7109375 C-57.71136636 23.81125038 -51.91910974 17.94129758 -47.265625 10.9375 C-35.72163885 -4.91467436 -17.57362961 -1.40617882 0 0 Z " fill="#010101" transform="translate(231,124)"/>
<path d="M0 0 C1.9765625 2.23046875 1.9765625 2.23046875 3.625 5.1875 C5.84304707 9.07689239 8.12164803 12.56231763 11 16 C9.46518706 19.80668295 7.13477919 21.8962489 4.0625 24.5625 C2.37232175 26.0386056 0.68455605 27.51748147 -1 29 C-1.62003906 29.46277344 -2.24007812 29.92554688 -2.87890625 30.40234375 C-4.28820689 32.06549137 -4.28820689 32.06549137 -3.875 34.859375 C0.70324274 51.29199626 16.67113381 63.21118338 30.859375 71.23046875 C43.08703069 77.82195126 56.0890274 81.83845312 69.875 83.54296875 C70.926875 83.76919922 70.926875 83.76919922 72 84 C72.33 84.66 72.66 85.32 73 86 C38.00105821 86.68384706 4.02766371 83.96242695 -23 59 C-23.71414062 58.36578125 -24.42828125 57.7315625 -25.1640625 57.078125 C-30.82422292 51.7894809 -34.98568974 45.59628446 -39 39 C-39.42539063 38.30390625 -39.85078125 37.6078125 -40.2890625 36.890625 C-41.2048053 34.45535295 -40.85949466 33.43432912 -40 31 C-38.66821289 29.40356445 -38.66821289 29.40356445 -36.97265625 27.86328125 C-36.03897217 27.00404053 -36.03897217 27.00404053 -35.08642578 26.12744141 C-34.41853027 25.52851074 -33.75063477 24.92958008 -33.0625 24.3125 C-32.38171387 23.69036621 -31.70092773 23.06823242 -30.99951172 22.42724609 C-29.00698008 20.60990277 -27.00476706 18.80382425 -25 17 C-24.04222656 16.12988281 -23.08445313 15.25976562 -22.09765625 14.36328125 C-20.49729453 12.91461259 -18.88964883 11.47393327 -17.2734375 10.04296875 C-15.68784622 8.61811611 -14.13242847 7.15927514 -12.6015625 5.67578125 C-11.43753906 4.56783203 -11.43753906 4.56783203 -10.25 3.4375 C-9.57453125 2.77621094 -8.8990625 2.11492187 -8.203125 1.43359375 C-5.2091813 -0.51459302 -3.49992049 -0.63718869 0 0 Z " fill="#030203" transform="translate(274,315)"/>
<path d="M0 0 C4.43744296 -0.05878606 8.87478373 -0.09385813 13.3125 -0.125 C14.55580078 -0.14175781 15.79910156 -0.15851563 17.08007812 -0.17578125 C27.6958563 -0.23150712 36.98393056 0.70555253 46.6875 5.125 C48.48767578 5.93324219 48.48767578 5.93324219 50.32421875 6.7578125 C51.20722656 7.16773438 52.09023438 7.57765625 53 8 C50.93215835 12.6450039 47.66165108 15.56919214 44 19 C43.154375 19.804375 42.30875 20.60875 41.4375 21.4375 C38.26355393 23.47208082 36.6981109 23.77043977 33 23 C31.82057749 21.65208856 30.6552004 20.28741939 29.58984375 18.84765625 C22.18376277 10.24058917 10.67633095 5.17404434 0 2 C0 1.34 0 0.68 0 0 Z " fill="#050305" transform="translate(399,167)"/>
</svg>
